<svg width="37" height="36" viewBox="0 0 37 36" fill="none" xmlns="http://www.w3.org/2000/svg">
<g clip-path="url(#clip0_1550_1043)">
<path d="M31.3512 17.2179C31.3512 16.6217 30.868 16.1387 30.272 16.1387C29.676 16.1387 29.1928 16.6217 29.1928 17.2179C29.1928 23.1139 24.3959 27.9108 18.4998 27.9108C12.6037 27.9108 7.80681 23.1138 7.80681 17.2179C7.80681 16.6217 7.32362 16.1387 6.72762 16.1387C6.13162 16.1387 5.64844 16.6217 5.64844 17.2179C5.64844 23.9407 10.8374 29.4735 17.4206 30.0235V33.8418H12.6136C12.3274 33.8418 12.0529 33.9555 11.8505 34.1578C11.6482 34.3602 11.5345 34.6347 11.5345 34.9209C11.5345 35.2072 11.6482 35.4816 11.8505 35.684C12.0529 35.8864 12.3274 36.0001 12.6136 36.0001H24.3858C24.672 36.0001 24.9465 35.8864 25.1489 35.684C25.3513 35.4816 25.465 35.2072 25.465 34.9209C25.465 34.6347 25.3513 34.3602 25.1489 34.1578C24.9465 33.9555 24.672 33.8418 24.3858 33.8418H19.5788V30.0235C26.162 29.4735 31.3512 23.9407 31.3512 17.2179Z" fill="white"/>
<path d="M18.5004 24.1829C22.3411 24.1829 25.4657 21.0583 25.4657 17.2177V6.9652C25.4657 3.1246 22.3411 0 18.5004 0C14.6598 0 11.5352 3.1246 11.5352 6.9652V17.2177C11.5352 21.0585 14.6598 24.1829 18.5004 24.1829Z" fill="white"/>
</g>
<defs>
<clipPath id="clip0_1550_1043">
<rect width="36" height="36" fill="white" transform="translate(0.5)"/>
</clipPath>
</defs>
</svg>
